<svg width="424" height="425" viewBox="0 0 424 425" fill="none" xmlns="http://www.w3.org/2000/svg">
<path d="M211.056 144.554C247.775 144.585 277.529 174.836 277.497 212.137C277.465 249.438 247.66 279.639 210.941 279.607C193.338 279.607 174.719 285.363 160.125 297.814C145.521 310.274 134.978 329.412 133.498 356.109L133.497 356.123V356.137C133.465 393.438 103.66 423.639 66.9414 423.607C30.2224 423.576 0.468452 393.326 0.5 356.024C0.531608 318.732 30.323 288.537 67.0303 288.554C78.1045 289.78 97.4275 286.227 114.001 274.604C130.619 262.951 144.471 243.184 144.5 212.024C144.532 174.723 174.337 144.523 211.056 144.554ZM211.056 288.554H357.056C393.775 288.585 423.529 318.836 423.497 356.137C423.465 393.437 393.662 423.637 356.943 423.606C354.721 423.568 258.712 423.59 210.94 423.606C174.222 423.575 144.468 393.325 144.5 356.024C144.532 318.723 174.337 288.523 211.056 288.554ZM211.056 0.553711H357.056C393.775 0.584833 423.529 30.8356 423.497 68.1367C423.465 105.438 393.66 135.639 356.941 135.607H210.941L209.375 135.617C176.698 136.052 158.215 150.92 147.672 167.784C136.984 184.882 134.474 204 133.501 212.077L133.497 212.107V212.137C133.465 249.438 103.66 279.639 66.9414 279.607C30.2224 279.576 0.46846 249.326 0.5 212.024C0.531615 174.723 30.3367 144.523 67.0557 144.554H67.0566C88.8591 144.554 107.711 137.502 121.373 124.39C135.035 111.276 143.467 92.1389 144.5 68.0449V68.0244C144.532 30.7232 174.337 0.522742 211.056 0.553711ZM67.0557 0.5C103.775 0.531122 133.529 30.7819 133.497 68.083C133.465 105.384 103.66 135.585 66.9414 135.554C30.2224 135.523 0.468472 105.272 0.5 67.9707C0.531615 30.6695 30.3367 0.469027 67.0557 0.5Z" stroke="white"/>
</svg>
